<?xml version="1.0" encoding="iso-8859-1"?>
<?xml-stylesheet href="../../svg.css" type="text/css"?>
<svg id="Capa_1" enable-background="new 0 0 512.093 512.093" height="512" viewBox="0 0 512.093 512.093" width="512" xmlns="http://www.w3.org/2000/svg">
<g>
<path d="m.047 0v360h160.283c10.552 21.799 28.776 39.693 50.716 50v102.093l45-27 45 27v-102.238c21.797-10.382 39.473-28.059 49.855-49.855h161.145v-360zm271 459.107-15-9-15 9v-40.167c4.932.699 9.94 1.06 15 1.06 5.093 0 10.099-.372 15-1.076zm-15-69.107c-41.906 0-76-33.645-76-75s34.094-75 76-75c41.355 0 75 33.645 75 75s-33.645 75-75 75zm0-180c-42.455 0-78.824 25.104-95.716 60h-27.182c-5.438-21.054-22.048-37.663-43.102-43.102v-93.796c21.053-5.439 37.663-22.048 43.101-43.102h245.797c5.438 21.054 22.048 37.663 43.102 43.102v93.796c-21.054 5.438-37.663 22.048-43.102 43.102h-28.043c-16.883-35.443-53.053-60-94.855-60zm226 120h-122.077c.704-4.901 1.076-9.907 1.076-15s-.372-10.099-1.076-15h47.076v-15c0-16.542 13.458-30 30-30h15v-150h-15c-16.542 0-30-13.458-30-30v-15h-302v15c0 16.542-13.458 30-30 30h-15v150h15c16.542 0 30 13.458 30 30v14.99h46.086c-.717 4.939-1.086 9.948-1.086 15.01s.37 10.071 1.086 15h-121.085v-300h452z"/>
<path d="m181.047 120h150v30h-150z"/>
<path d="m120.047 180h272v30h-272z"/>
<path d="m256.047 270c-24.813 0-45 20.187-45 45s20.187 45 45 45 45-20.187 45-45-20.187-45-45-45zm0 60c-8.271 0-15-6.729-15-15s6.729-15 15-15 15 6.729 15 15-6.729 15-15 15z"/>
</g>
</svg>